<?xml version="1.0" standalone="no"?>
<!DOCTYPE svg PUBLIC "-//W3C//DTD SVG 20010904//EN"
 "http://www.w3.org/TR/2001/REC-SVG-20010904/DTD/svg10.dtd">
<svg version="1.0" xmlns="http://www.w3.org/2000/svg"
 width="75.000000pt" height="75.000000pt" viewBox="0 0 75.000000 75.000000"
 preserveAspectRatio="xMidYMid meet">
<metadata>
Created by potrace 1.11, written by Peter Selinger 2001-2013
</metadata>
<g transform="translate(0.000000,75.000000) scale(0.100000,-0.100000)"
fill="#000000" stroke="none">
<path d="M397 662 c-21 -23 -22 -38 -2 -46 21 -8 43 3 50 25 13 39 -20 53 -48
21z"/>
<path d="M426 539 c-64 -64 -116 -109 -125 -107 -32 6 -22 37 29 88 51 51 61
82 29 88 -9 2 -31 -13 -49 -32 l-33 -35 -17 22 c-18 21 -18 21 -105 -63 -48
-47 -96 -103 -108 -125 -24 -48 -26 -133 -4 -186 20 -46 84 -103 132 -119 55
-18 144 -8 191 23 44 28 294 278 294 294 0 6 -7 16 -15 23 -13 11 -31 -3 -118
-89 -57 -55 -108 -101 -114 -101 -6 0 -16 7 -23 15 -11 13 12 40 149 179 117
118 160 168 155 180 -12 31 -39 15 -141 -85 -87 -86 -105 -100 -118 -89 -8 7
-15 17 -15 24 0 6 36 47 80 91 59 59 79 86 74 98 -12 32 -40 15 -148 -94z
m-217 -198 c14 -26 -9 -56 -36 -47 -26 8 -37 34 -22 52 16 20 47 17 58 -5z
m114 -3 c13 -20 -6 -48 -34 -48 -20 0 -36 40 -24 60 10 16 46 8 58 -12z m-24
-113 c35 -8 38 -20 13 -53 -36 -47 -137 -38 -161 15 -14 31 -15 30 35 41 41 9
63 8 113 -3z"/>
<path d="M695 492 c-5 -4 -18 -17 -29 -29 -15 -19 -16 -25 -6 -38 17 -21 25
-19 55 10 28 29 30 36 13 53 -14 14 -19 15 -33 4z"/>
</g>
</svg>
